<svg width="199" height="98" viewBox="0 0 199 98" fill="none" xmlns="http://www.w3.org/2000/svg">
<path d="M192.166 15.7883C187.5 14.8783 184.294 17.4723 181.434 20.5263C182.842 16.8993 182.625 12.7273 180.496 9.27432C177.518 4.44532 171.454 1.73932 165.955 3.69232C160.846 5.50632 157.462 11.9543 160.857 16.8003C163.589 20.7003 171.251 21.7633 172.716 16.0713C173.253 13.9853 172.234 11.4823 170.073 10.8333C167.943 10.1933 165.929 11.4533 165.376 13.5303C165.217 14.1273 165.273 14.8733 165.009 15.4333C163.855 17.8763 161.906 15.6573 161.873 14.0693C161.835 12.2043 163.045 10.2633 164.344 9.01031C167.022 6.42731 170.961 5.67932 174.332 7.32632C177.819 9.02932 179.784 12.6893 179.214 16.5353C178.616 20.5663 175.518 23.2393 171.711 24.2683C164.55 26.2033 157.107 23.2993 150.887 19.7313C150.966 19.7463 151.043 19.7653 151.123 19.7793C154.235 20.2973 157.342 19.3223 159.259 16.7683C159.61 16.3013 159.087 16.3603 159.087 16.3603C155.505 18.3583 150.844 13.6283 147.433 11.7563C149.736 9.86731 149.472 6.95931 149.472 6.95931C142.814 8.42031 143.569 6.02933 137.513 6.07733C139.23 4.72433 141.382 2.78631 143.544 2.80731C145.047 2.93131 145.189 2.5063 144.024 1.6983C138.181 -1.8927 131.296 1.13831 125.157 2.36431C122.702 2.85431 120.157 2.97931 117.631 3.14431C117.593 3.14331 117.555 3.14232 117.517 3.14132C117.407 3.13832 117.297 3.1353 117.186 3.1343C115.253 3.0823 113.311 3.25831 111.386 3.73431C110.327 3.99631 109.288 4.35831 108.29 4.80831C106.991 5.32931 105.741 6.02532 104.562 6.97332C104.458 7.05732 104.391 7.14933 104.351 7.24533C101.663 9.45433 99.6967 12.4713 99.1377 16.0393C98.2877 21.4683 101.429 27.5923 107.006 28.9343C112.106 30.1613 118.583 26.9443 118.472 21.1033C118.426 18.6953 116.743 16.3133 114.299 15.8583C112.089 15.4463 109.682 16.9923 109.343 19.2653C108.691 23.6473 116.017 25.0483 116.574 20.4223C116.574 20.4223 117.454 22.0743 116.21 23.9523C115.387 25.1943 113.745 25.8133 112.31 26.0063C110.55 26.2433 108.507 25.9643 106.926 25.1323C103.652 23.4103 102.23 19.6373 102.552 16.0883C103.096 10.0963 107.777 7.0033 113.092 5.9793C111.541 7.5003 110.541 9.7413 111.427 11.8413C112.42 14.1923 115.399 15.0623 117.505 13.6353C118.576 12.9103 119.043 11.8443 119.357 10.6373C119.664 9.45332 119.966 8.41531 121.141 7.82931C121.968 7.41631 122.902 7.34132 123.832 7.39532C125.044 7.46432 126.23 7.80832 127.305 8.37432C129.03 9.28332 130.635 10.4773 131.936 11.7723C134.357 14.1803 136.048 17.6213 135.378 21.1003C134.828 23.9553 132.77 26.1413 130.054 26.6093C129.076 26.7773 128.055 26.5073 127.338 25.8213C127.094 25.5873 126.873 25.3233 126.681 25.0273C125.347 22.9743 125.871 19.4983 128.028 18.4883C128.907 18.0763 128.519 17.5293 127.643 17.9393C124.469 19.4273 123.59 23.6493 125.787 26.3493C128.202 29.3173 132.943 29.2133 135.707 26.8023C138.767 24.1333 139.275 19.8263 138.165 16.1033C142.856 19.1453 147.523 22.2473 152.318 25.1153C157.041 27.9403 162.264 30.3323 167.882 30.2163C172.925 30.1123 176.897 27.9063 180.168 24.1733C181.85 22.2533 183.421 20.0923 185.568 18.6543C188.266 16.8473 191.959 16.4953 194.67 18.4853C197.428 20.5103 198.346 24.3913 196.194 27.1963C193.977 30.0853 189.21 30.2663 187.378 27.0733C186.895 26.2303 185.967 26.6123 186.452 27.4583C189.01 31.9163 195.318 31.7193 197.895 27.3903C200.723 22.6493 197.303 16.7903 192.166 15.7883ZM165.599 17.3463C166.298 16.7053 166.486 15.7823 166.657 14.8943C166.823 14.0363 166.875 13.0843 167.692 12.5423C168.534 11.9853 169.775 12.1103 170.511 12.7863C172.055 14.2053 171.28 16.6903 169.76 17.7483C168.23 18.8123 166.249 18.8373 164.594 18.0513C164.53 18.0213 164.472 17.9843 164.41 17.9523C164.839 17.8613 165.249 17.6683 165.599 17.3463ZM166.722 5.67633C164.896 6.42733 162.616 8.3233 161.293 10.5263C161.334 10.3723 161.376 10.2193 161.428 10.0663C163.301 4.57231 169.443 3.58632 174.156 5.64132C171.803 4.74432 169.151 4.67733 166.722 5.67633ZM114.861 20.9773C113.96 22.5813 110.922 21.8323 110.852 20.1643C110.662 15.6553 117.044 17.0913 114.861 20.9773ZM110.613 27.6203C110.061 27.6993 109.502 27.7253 108.949 27.6973C105.791 27.5373 103.108 25.5633 101.689 22.7813C100.005 19.4803 100.273 15.9313 101.77 12.8863C100.972 15.0723 100.761 17.4643 101.306 19.8503C102.32 24.2823 106.101 27.4773 110.613 27.6203ZM117.348 11.5793C116.127 13.3983 113.221 13.1753 112.68 10.8233C112.289 9.1213 113.537 7.43232 114.827 6.46832C116.215 5.43032 118.035 5.56131 118.825 5.58731C116.447 6.33131 114.497 8.09031 114.046 10.7773C113.865 11.8543 114.249 11.6273 114.747 10.4233C115.687 8.1513 117.674 7.38132 119.775 6.90332C118.11 8.13132 118.418 9.98531 117.348 11.5793ZM161.191 25.6513C166.437 26.8693 172.764 26.8103 177.119 23.2163C179.296 21.4203 180.571 18.7393 180.789 15.9813C180.763 19.0123 179.54 22.0343 177.141 24.2663C172.501 28.5813 165.785 27.7643 160.344 25.4383C160.625 25.5103 160.906 25.5843 161.191 25.6513ZM145.695 12.9443C149.253 14.2093 152.424 17.9123 156.167 17.6863C151.992 20.3053 146.266 16.2703 142.269 13.5683C143.441 13.5013 144.621 13.3073 145.695 12.9443ZM127.552 5.5733C126.121 4.9743 124.652 4.40633 123.657 4.13333C124.07 4.08033 124.479 4.01832 124.884 3.94732C130.11 3.02332 135.958 0.333327 141.155 2.03433C139.878 2.44133 138.69 3.15332 137.573 3.98632C137.424 4.09732 137.276 4.21032 137.127 4.32632C134.4 6.43532 130.733 6.9033 127.552 5.5733ZM134.726 25.6853C135.583 24.7553 136.244 23.6203 136.626 22.3463C137.83 18.3293 134.671 13.5913 133.157 10.8563C138.788 16.9773 138.725 23.2693 134.726 25.6853ZM148.126 20.6893C144.472 18.3453 140.819 16.0013 137.165 13.6573C136.776 12.9263 136.327 12.2363 135.826 11.5893C139.404 13.8893 142.856 16.4343 146.413 18.7613C151.056 22.0473 155.818 25.3563 161.031 27.3703C162.272 27.8493 163.582 28.2273 164.92 28.4793C162.951 28.2283 160.966 27.6773 159.029 26.8783C155.154 25.2803 151.639 22.9433 148.126 20.6893Z" fill="#E6E3C4"/>
<path d="M1.01696 27.3903C3.59496 31.7193 9.90295 31.9163 12.46 27.4583C12.945 26.6133 12.0169 26.2313 11.5339 27.0733C9.70193 30.2663 4.93395 30.0863 2.71795 27.1963C0.565947 24.3913 1.48393 20.5093 4.24193 18.4853C6.95293 16.4953 10.6459 16.8473 13.3439 18.6543C15.4909 20.0923 17.0609 22.2533 18.7439 24.1733C22.0149 27.9063 25.987 30.1133 31.03 30.2163C36.648 30.3313 41.8719 27.9393 46.5939 25.1153C51.3889 22.2473 56.0559 19.1453 60.7469 16.1033C59.6369 19.8263 60.1449 24.1333 63.2049 26.8023C65.9689 29.2133 70.7099 29.3173 73.1249 26.3493C75.3219 23.6493 74.4429 19.4273 71.2689 17.9393C70.3929 17.5293 70.005 18.0763 70.884 18.4883C73.04 19.4993 73.5649 22.9743 72.2309 25.0273C72.0389 25.3233 71.818 25.5873 71.574 25.8213C70.858 26.5083 69.836 26.7783 68.858 26.6093C66.142 26.1413 64.0849 23.9553 63.5339 21.1003C62.8629 17.6213 64.5539 14.1813 66.9759 11.7723C68.2779 10.4773 69.8819 9.2833 71.6069 8.3743C72.6809 7.8083 73.8669 7.4643 75.0799 7.3953C76.0099 7.3423 76.9439 7.41729 77.7709 7.82929C78.9449 8.41529 79.2469 9.4533 79.5549 10.6373C79.8679 11.8443 80.3359 12.9103 81.4069 13.6353C83.5139 15.0613 86.4929 14.1923 87.4849 11.8413C88.3719 9.74131 87.3709 7.50031 85.8199 5.97931C91.1349 7.00331 95.8159 10.0963 96.3599 16.0883C96.6819 19.6373 95.26 23.4103 91.986 25.1323C90.405 25.9633 88.3619 26.2433 86.6019 26.0063C85.1669 25.8133 83.525 25.1943 82.702 23.9523C81.458 22.0733 82.3379 20.4223 82.3379 20.4223C82.8949 25.0473 90.221 23.6473 89.569 19.2653C89.231 16.9923 86.824 15.4463 84.613 15.8583C82.17 16.3133 80.4859 18.6953 80.4399 21.1033C80.3289 26.9443 86.8059 30.1613 91.9059 28.9343C97.4829 27.5923 100.624 21.4673 99.7739 16.0393C99.2149 12.4713 97.249 9.4543 94.561 7.2453C94.521 7.1503 94.454 7.0573 94.35 6.9733C93.171 6.0243 91.9209 5.32929 90.6219 4.80829C89.6239 4.35829 88.5849 3.99629 87.5259 3.73429C85.6019 3.25829 83.6599 3.08231 81.7259 3.13431C81.6159 3.13531 81.506 3.1383 81.395 3.1413C81.357 3.1433 81.3189 3.14329 81.2809 3.14429C78.7549 2.97929 76.2099 2.85429 73.7549 2.36429C67.6159 1.13829 60.7319 -1.89269 54.8879 1.69831C53.7229 2.50631 53.8649 2.93128 55.3679 2.80728C57.5309 2.78728 59.6819 4.7243 61.3989 6.0773C55.3429 6.0293 56.0979 8.42029 49.4399 6.95929C49.4399 6.95929 49.1759 9.86829 51.4789 11.7563C48.0679 13.6283 43.4069 18.3583 39.8249 16.3603C39.8249 16.3603 39.3029 16.3013 39.6529 16.7683C41.5699 19.3223 44.6769 20.2983 47.7889 19.7793C47.8689 19.7663 47.946 19.7463 48.025 19.7313C41.806 23.2993 34.3619 26.2033 27.2009 24.2683C23.3939 23.2393 20.2949 20.5653 19.6979 16.5353C19.1279 12.6893 21.0919 9.0293 24.5799 7.3263C27.9509 5.6793 31.8899 6.42729 34.5679 9.01029C35.8669 10.2623 37.0779 12.2043 37.0389 14.0693C37.0059 15.6583 35.0569 17.8773 33.9029 15.4333C33.6389 14.8733 33.6949 14.1273 33.5359 13.5303C32.9829 11.4533 30.9679 10.1933 28.8389 10.8333C26.6779 11.4833 25.6589 13.9853 26.1959 16.0713C27.6599 21.7623 35.3219 20.7003 38.0549 16.8003C41.4499 11.9543 38.066 5.50629 32.957 3.69229C27.458 1.74029 21.3939 4.4453 18.4159 9.2743C16.2869 12.7273 16.07 16.8993 17.478 20.5263C14.619 17.4713 11.412 14.8783 6.74596 15.7883C1.61496 16.7913 -1.80504 22.6503 1.01696 27.3903ZM34.5079 17.9543C34.4459 17.9863 34.388 18.0223 34.324 18.0533C32.669 18.8393 30.6879 18.8143 29.1579 17.7503C27.6379 16.6933 26.8629 14.2073 28.4069 12.7883C29.1419 12.1123 30.3839 11.9873 31.2259 12.5443C32.0429 13.0853 32.0949 14.0373 32.2609 14.8963C32.4329 15.7843 32.621 16.7073 33.319 17.3483C33.669 17.6693 34.0789 17.8623 34.5079 17.9543ZM24.762 5.64231C29.475 3.58731 35.6169 4.5743 37.4899 10.0673C37.5419 10.2193 37.5839 10.3733 37.6249 10.5273C36.3019 8.32429 34.0209 6.42831 32.1959 5.67731C29.7669 4.67831 27.115 4.74531 24.762 5.64231ZM88.066 20.1663C87.996 21.8343 84.9579 22.5833 84.0569 20.9793C81.8739 17.0923 88.256 15.6563 88.066 20.1663ZM97.6119 19.8513C98.1569 17.4663 97.9459 15.0733 97.1479 12.8873C98.6449 15.9313 98.9129 19.4813 97.2289 22.7823C95.8099 25.5643 93.1269 27.5383 89.9689 27.6983C89.4159 27.7263 88.8569 27.7003 88.3049 27.6213C92.8169 27.4783 96.5979 24.2833 97.6119 19.8513ZM79.1429 6.90628C81.2429 7.38428 83.231 8.1533 84.171 10.4263C84.669 11.6303 85.0529 11.8563 84.8719 10.7803C84.4209 8.09331 82.4709 6.3343 80.0929 5.5903C80.8829 5.5643 82.7029 5.43329 84.0909 6.47129C85.3809 7.43629 86.629 9.1243 86.238 10.8263C85.697 13.1783 82.7909 13.4013 81.5699 11.5823C80.4999 9.98631 80.8079 8.13228 79.1429 6.90628ZM38.5749 25.4383C33.1339 27.7653 26.4179 28.5813 21.7779 24.2663C19.3779 22.0353 18.1559 19.0123 18.1299 15.9813C18.3479 18.7393 19.6229 21.4203 21.7999 23.2163C26.1549 26.8103 32.482 26.8693 37.728 25.6513C38.012 25.5853 38.2929 25.5113 38.5749 25.4383ZM56.6489 13.5693C52.6519 16.2713 46.925 20.3063 42.751 17.6873C46.494 17.9133 49.6649 14.2103 53.2229 12.9453C54.2969 13.3083 55.4769 13.5023 56.6489 13.5693ZM61.7909 4.3263C61.6419 4.2113 61.493 4.0973 61.345 3.9863C60.228 3.1533 59.0399 2.44131 57.7629 2.03431C62.9599 0.334305 68.8089 3.0233 74.0339 3.9473C74.4389 4.0193 74.8489 4.0803 75.2609 4.1333C74.2659 4.4053 72.797 4.97431 71.366 5.57331C68.184 6.90431 64.5179 6.4363 61.7909 4.3263ZM65.7609 10.8573C64.2469 13.5923 61.0869 18.3303 62.2919 22.3473C62.6739 23.6203 63.3349 24.7563 64.1919 25.6863C60.1929 23.2703 60.1299 16.9783 65.7609 10.8573ZM39.889 26.8783C37.952 27.6763 35.9669 28.2273 33.9979 28.4793C35.3359 28.2273 36.646 27.8493 37.887 27.3703C43.1 25.3563 47.8619 22.0473 52.5049 18.7613C56.0619 16.4343 59.514 13.8893 63.092 11.5893C62.591 12.2373 62.1419 12.9273 61.7529 13.6573C58.0989 16.0013 54.4459 18.3453 50.7919 20.6893C47.2789 22.9443 43.764 25.2813 39.889 26.8783Z" fill="#E6E3C4"/>
<path d="M197.862 69.7933C195.284 65.4643 188.976 65.2673 186.419 69.7253C185.934 70.5703 186.862 70.9523 187.345 70.1103C189.177 66.9173 193.945 67.0973 196.161 69.9873C198.313 72.7923 197.395 76.6743 194.637 78.6983C191.926 80.6883 188.233 80.3363 185.535 78.5293C183.388 77.0913 181.818 74.9303 180.135 73.0103C176.864 69.2773 172.892 67.0703 167.849 66.9673C162.231 66.8523 157.007 69.2443 152.285 72.0683C147.49 74.9363 142.823 78.0383 138.132 81.0803C139.242 77.3573 138.734 73.0503 135.674 70.3813C132.91 67.9703 128.169 67.8663 125.754 70.8343C123.557 73.5343 124.436 77.7563 127.61 79.2443C128.486 79.6543 128.874 79.1073 127.995 78.6953C125.839 77.6843 125.314 74.2093 126.648 72.1563C126.84 71.8603 127.061 71.5963 127.305 71.3623C128.021 70.6753 129.043 70.4053 130.021 70.5743C132.737 71.0423 134.794 73.2283 135.345 76.0833C136.016 79.5623 134.325 83.0023 131.903 85.4113C130.601 86.7063 128.997 87.9003 127.272 88.8093C126.198 89.3753 125.012 89.7193 123.799 89.7883C122.869 89.8413 121.935 89.7663 121.108 89.3543C119.934 88.7683 119.632 87.7303 119.324 86.5463C119.011 85.3393 118.543 84.2733 117.472 83.5483C115.365 82.1223 112.386 82.9913 111.394 85.3423C110.507 87.4423 111.508 89.6823 113.059 91.2043C107.744 90.1803 103.063 87.0873 102.519 81.0953C102.197 77.5463 103.619 73.7733 106.893 72.0523C108.474 71.2213 110.517 70.9413 112.277 71.1783C113.712 71.3713 115.354 71.9903 116.177 73.2323C117.421 75.1113 116.541 76.7623 116.541 76.7623C115.984 72.1373 108.658 73.5373 109.31 77.9193C109.648 80.1923 112.055 81.7383 114.266 81.3263C116.709 80.8713 118.393 78.4893 118.439 76.0813C118.55 70.2403 112.073 67.0233 106.973 68.2503C101.396 69.5923 98.255 75.7173 99.105 81.1453C99.664 84.7133 101.63 87.7303 104.318 89.9393C104.358 90.0343 104.425 90.1273 104.529 90.2113C105.708 91.1603 106.958 91.8553 108.257 92.3763C109.255 92.8263 110.294 93.1883 111.353 93.4503C113.277 93.9263 115.219 94.1023 117.153 94.0503C117.263 94.0493 117.373 94.0463 117.484 94.0433C117.522 94.0413 117.56 94.0413 117.598 94.0403C120.124 94.2053 122.669 94.3303 125.124 94.8203C131.263 96.0463 138.147 99.0773 143.991 95.4863C145.156 94.6783 145.014 94.2533 143.511 94.3773C141.348 94.3973 139.197 92.4603 137.48 91.1073C143.536 91.1553 142.781 88.7633 149.439 90.2253C149.439 90.2253 149.703 87.3163 147.4 85.4273C150.811 83.5553 155.472 78.8253 159.054 80.8233C159.054 80.8233 159.576 80.8823 159.226 80.4153C157.309 77.8613 154.202 76.8853 151.09 77.4043C151.01 77.4173 150.933 77.4373 150.854 77.4523C157.073 73.8843 164.517 70.9803 171.678 72.9153C175.485 73.9443 178.584 76.6183 179.181 80.6483C179.751 84.4943 177.787 88.1543 174.299 89.8573C170.928 91.5043 166.989 90.7563 164.311 88.1733C163.012 86.9213 161.801 84.9793 161.84 83.1143C161.873 81.5253 163.822 79.3063 164.976 81.7493C165.24 82.3093 165.184 83.0553 165.343 83.6523C165.896 85.7293 167.911 86.9893 170.04 86.3493C172.201 85.6993 173.22 83.1973 172.683 81.1113C171.219 75.4193 163.557 76.4823 160.824 80.3823C157.429 85.2283 160.813 91.6763 165.922 93.4903C171.421 95.4423 177.485 92.7373 180.463 87.9083C182.592 84.4553 182.809 80.2833 181.401 76.6563C184.26 79.7113 187.467 82.3043 192.133 81.3943C197.264 80.3933 200.684 74.5333 197.862 69.7933ZM164.371 79.2303C164.433 79.1983 164.491 79.1623 164.555 79.1313C166.21 78.3453 168.191 78.3703 169.721 79.4343C171.241 80.4913 172.016 82.9773 170.472 84.3963C169.737 85.0723 168.495 85.1973 167.653 84.6403C166.836 84.0993 166.784 83.1473 166.618 82.2883C166.446 81.4003 166.258 80.4773 165.56 79.8363C165.21 79.5153 164.8 79.3213 164.371 79.2303ZM174.117 91.5423C169.404 93.5973 163.262 92.6113 161.389 87.1173C161.337 86.9653 161.295 86.8113 161.254 86.6573C162.577 88.8603 164.858 90.7563 166.683 91.5073C169.112 92.5053 171.764 92.4383 174.117 91.5423ZM110.813 77.0183C110.883 75.3503 113.921 74.6013 114.822 76.2053C117.005 80.0923 110.623 81.5273 110.813 77.0183ZM101.267 77.3333C100.722 79.7183 100.933 82.1113 101.731 84.2973C100.234 81.2533 99.966 77.7033 101.65 74.4023C103.07 71.6203 105.752 69.6463 108.91 69.4863C109.463 69.4583 110.022 69.4843 110.574 69.5633C106.062 69.7053 102.281 72.9003 101.267 77.3333ZM119.736 90.2783C117.636 89.8003 115.648 89.0313 114.708 86.7583C114.21 85.5543 113.826 85.3283 114.007 86.4043C114.458 89.0913 116.408 90.8503 118.786 91.5943C117.996 91.6213 116.176 91.7513 114.788 90.7133C113.498 89.7483 112.25 88.0603 112.641 86.3583C113.182 84.0063 116.088 83.7833 117.309 85.6023C118.379 87.1973 118.071 89.0523 119.736 90.2783ZM160.304 71.7463C165.745 69.4193 172.461 68.6033 177.101 72.9183C179.501 75.1493 180.723 78.1723 180.749 81.2033C180.531 78.4453 179.256 75.7643 177.079 73.9683C172.724 70.3743 166.397 70.3153 161.151 71.5333C160.867 71.5983 160.586 71.6723 160.304 71.7463ZM142.23 83.6153C146.227 80.9133 151.954 76.8783 156.128 79.4973C152.385 79.2713 149.214 82.9743 145.656 84.2393C144.582 83.8763 143.402 83.6823 142.23 83.6153ZM137.088 92.8583C137.237 92.9733 137.386 93.0873 137.534 93.1983C138.651 94.0313 139.839 94.7433 141.116 95.1503C135.919 96.8503 130.07 94.1613 124.845 93.2373C124.44 93.1653 124.03 93.1043 123.618 93.0513C124.613 92.7793 126.082 92.2103 127.513 91.6113C130.694 90.2803 134.361 90.7473 137.088 92.8583ZM133.117 86.3273C134.631 83.5923 137.791 78.8543 136.586 74.8373C136.204 73.5643 135.543 72.4283 134.686 71.4983C138.686 73.9143 138.749 80.2063 133.117 86.3273ZM158.99 70.3053C160.927 69.5073 162.912 68.9563 164.881 68.7043C163.543 68.9563 162.233 69.3343 160.992 69.8133C155.779 71.8273 151.017 75.1363 146.374 78.4223C142.817 80.7493 139.365 83.2943 135.787 85.5943C136.288 84.9463 136.737 84.2563 137.126 83.5263C140.78 81.1823 144.433 78.8383 148.087 76.4943C151.6 74.2403 155.115 71.9023 158.99 70.3053Z" fill="#E6E3C4"/>
<path d="M6.75195 81.3953C11.4179 82.3053 14.6239 79.7113 17.4839 76.6573C16.0759 80.2843 16.2929 84.4563 18.4219 87.9093C21.3999 92.7383 27.4639 95.4443 32.9629 93.4913C38.0719 91.6773 41.456 85.2293 38.061 80.3833C35.329 76.4833 27.667 75.4203 26.202 81.1123C25.665 83.1983 26.684 85.7013 28.845 86.3503C30.975 86.9903 32.9889 85.7303 33.5419 83.6533C33.7009 83.0563 33.6449 82.3103 33.9089 81.7503C35.0629 79.3073 37.0119 81.5263 37.0449 83.1153C37.0829 84.9803 35.873 86.9213 34.574 88.1743C31.896 90.7573 27.9569 91.5053 24.5859 89.8583C21.0989 88.1553 19.134 84.4953 19.704 80.6493C20.302 76.6183 23.4 73.9453 27.207 72.9163C34.368 70.9813 41.8109 73.8853 48.0309 77.4533C47.9519 77.4383 47.8749 77.4193 47.7949 77.4053C44.6829 76.8873 41.5759 77.8623 39.6589 80.4163C39.3079 80.8833 39.8309 80.8243 39.8309 80.8243C43.4129 78.8263 48.0739 83.5563 51.4849 85.4283C49.1819 87.3173 49.4459 90.2263 49.4459 90.2263C56.1039 88.7653 55.349 91.1563 61.405 91.1083C59.688 92.4613 57.536 94.3993 55.374 94.3783C53.871 94.2543 53.7289 94.6793 54.8939 95.4873C60.7369 99.0783 67.6219 96.0473 73.7609 94.8213C76.2159 94.3313 78.7609 94.2063 81.2869 94.0413C81.3249 94.0423 81.3629 94.0433 81.4009 94.0443C81.5109 94.0473 81.6209 94.0503 81.7319 94.0513C83.6649 94.1033 85.6069 93.9273 87.5319 93.4513C88.5909 93.1893 89.6299 92.8273 90.6279 92.3773C91.9269 91.8563 93.1769 91.1603 94.3559 90.2123C94.4599 90.1283 94.5269 90.0363 94.5669 89.9403C97.2549 87.7313 99.221 84.7143 99.78 81.1463C100.63 75.7173 97.4889 69.5933 91.9119 68.2513C86.8119 67.0243 80.3349 70.2413 80.4459 76.0823C80.4919 78.4903 82.1749 80.8723 84.6189 81.3273C86.8289 81.7393 89.2359 80.1933 89.5749 77.9203C90.2269 73.5383 82.9009 72.1373 82.3439 76.7633C82.3439 76.7633 81.4639 75.1113 82.7079 73.2333C83.5309 71.9913 85.173 71.3723 86.608 71.1793C88.368 70.9423 90.4109 71.2213 91.9919 72.0533C95.2659 73.7753 96.688 77.5483 96.366 81.0963C95.822 87.0883 91.1409 90.1813 85.8259 91.2053C87.3769 89.6843 88.377 87.4433 87.491 85.3433C86.498 82.9923 83.519 82.1223 81.413 83.5493C80.342 84.2743 79.875 85.3403 79.561 86.5473C79.254 87.7313 78.952 88.7693 77.777 89.3553C76.95 89.7683 76.0159 89.8433 75.0859 89.7893C73.8739 89.7203 72.688 89.3763 71.613 88.8103C69.888 87.9013 68.2829 86.7073 66.9819 85.4123C64.5609 83.0043 62.87 79.5633 63.54 76.0843C64.09 73.2293 66.1479 71.0433 68.8639 70.5753C69.8419 70.4073 70.8629 70.6773 71.5799 71.3633C71.8239 71.5973 72.0449 71.8613 72.2369 72.1573C73.5709 74.2103 73.0469 77.6863 70.8899 78.6963C70.0109 79.1083 70.399 79.6553 71.275 79.2453C74.449 77.7573 75.3279 73.5353 73.1309 70.8353C70.7159 67.8673 65.9749 67.9713 63.2109 70.3823C60.1509 73.0513 59.6429 77.3583 60.7529 81.0813C56.0619 78.0393 51.395 74.9373 46.6 72.0693C41.877 69.2443 36.6539 66.8523 31.0359 66.9683C25.9929 67.0723 22.0209 69.2783 18.7499 73.0113C17.0679 74.9313 15.497 77.0923 13.35 78.5303C10.652 80.3373 6.95892 80.6893 4.24792 78.6993C1.48992 76.6743 0.571934 72.7933 2.72393 69.9883C4.94093 67.0993 9.70797 66.9183 11.54 70.1113C12.023 70.9543 12.9509 70.5723 12.4659 69.7263C9.90794 65.2683 3.59994 65.4653 1.02294 69.7943C-1.80506 74.5333 1.61495 80.3933 6.75195 81.3953ZM33.319 79.8363C32.62 80.4773 32.4319 81.4003 32.2609 82.2883C32.0949 83.1463 32.0429 84.0983 31.2259 84.6403C30.3839 85.1973 29.1429 85.0723 28.4069 84.3963C26.8629 82.9773 27.638 80.4923 29.158 79.4343C30.688 78.3703 32.669 78.3453 34.324 79.1313C34.388 79.1613 34.4459 79.1983 34.5079 79.2303C34.0789 79.3213 33.669 79.5153 33.319 79.8363ZM32.1959 91.5073C34.0219 90.7563 36.3019 88.8603 37.6249 86.6573C37.5839 86.8113 37.5419 86.9643 37.4899 87.1173C35.6169 92.6113 29.475 93.5973 24.762 91.5423C27.115 92.4383 29.7669 92.5053 32.1959 91.5073ZM84.0569 76.2053C84.9579 74.6013 87.996 75.3503 88.066 77.0183C88.256 81.5273 81.8739 80.0923 84.0569 76.2053ZM88.3049 69.5633C88.8569 69.4843 89.4159 69.4583 89.9689 69.4863C93.1269 69.6463 95.8099 71.6203 97.2289 74.4023C98.9129 77.7033 98.6449 81.2523 97.1479 84.2973C97.9459 82.1113 98.1569 79.7193 97.6119 77.3333C96.5979 72.9003 92.8169 69.7053 88.3049 69.5633ZM81.5699 85.6033C82.7909 83.7843 85.697 84.0073 86.238 86.3593C86.629 88.0613 85.3809 89.7503 84.0909 90.7143C82.7029 91.7523 80.8829 91.6213 80.0929 91.5953C82.4709 90.8513 84.4209 89.0923 84.8719 86.4053C85.0529 85.3283 84.669 85.5553 84.171 86.7593C83.231 89.0313 81.2439 89.8013 79.1429 90.2793C80.8079 89.0523 80.4999 87.1973 81.5699 85.6033ZM37.7269 71.5323C32.4809 70.3143 26.1539 70.3733 21.7989 73.9673C19.6219 75.7633 18.347 78.4443 18.129 81.2023C18.155 78.1713 19.378 75.1493 21.777 72.9173C26.417 68.6023 33.133 69.4193 38.574 71.7453C38.293 71.6723 38.0119 71.5983 37.7269 71.5323ZM53.223 84.2393C49.665 82.9743 46.494 79.2713 42.751 79.4973C46.926 76.8783 52.6519 80.9133 56.6489 83.6153C55.4769 83.6823 54.297 83.8763 53.223 84.2393ZM71.366 91.6103C72.797 92.2093 74.2659 92.7773 75.2609 93.0503C74.8479 93.1033 74.4389 93.1653 74.0339 93.2363C68.8079 94.1603 62.9599 96.8503 57.7629 95.1493C59.0399 94.7423 60.228 94.0303 61.345 93.1973C61.494 93.0863 61.642 92.9733 61.791 92.8573C64.518 90.7473 68.184 90.2803 71.366 91.6103ZM64.1919 71.4983C63.3349 72.4283 62.6739 73.5633 62.2919 74.8373C61.0879 78.8543 64.2469 83.5923 65.7609 86.3273C60.1299 80.2063 60.1929 73.9143 64.1919 71.4983ZM50.7919 76.4943C54.4459 78.8383 58.0989 81.1823 61.7529 83.5263C62.1419 84.2573 62.591 84.9473 63.092 85.5943C59.514 83.2943 56.0619 80.7493 52.5049 78.4223C47.8619 75.1363 43.1 71.8273 37.887 69.8133C36.646 69.3343 35.3359 68.9563 33.9979 68.7043C35.9669 68.9553 37.952 69.5063 39.889 70.3053C43.764 71.9023 47.2789 74.2403 50.7919 76.4943Z" fill="#E6E3C4"/>
<path d="M35.068 41.2126V41.7433C34.7319 41.8141 34.3604 42.0175 33.9535 42.3536C33.5467 42.6721 33.2194 43.2382 32.9717 44.0519L27.9564 60.1327C27.9211 60.1327 27.8857 60.1327 27.8503 60.1327C27.8149 60.1327 27.7795 60.1327 27.7441 60.1327C27.7088 60.1327 27.6734 60.1327 27.638 60.1327C27.6026 60.1327 27.5672 60.1327 27.5319 60.1327L21.9062 43.4416C21.6763 42.7517 21.4198 42.3006 21.1367 42.0883C20.8537 41.876 20.5883 41.761 20.3406 41.7433V41.2126C20.6591 41.2303 21.0571 41.248 21.5347 41.2657C22.0124 41.2834 22.4723 41.2922 22.9146 41.2922C23.6045 41.2922 24.2503 41.2834 24.8517 41.2657C25.4532 41.248 25.9397 41.2303 26.3112 41.2126V41.7433C25.7805 41.761 25.3559 41.8141 25.0375 41.9025C24.7367 41.991 24.5598 42.1856 24.5068 42.4863C24.4714 42.7871 24.5598 43.2824 24.7721 43.9723L28.726 56.2054L28.3545 56.5238L31.8572 45.5114C32.1756 44.5384 32.3172 43.7866 32.2818 43.2559C32.2641 42.7074 32.0695 42.3271 31.698 42.1148C31.3265 41.8848 30.7692 41.761 30.0262 41.7433V41.2126C30.5393 41.2303 31.0611 41.248 31.5918 41.2657C32.1226 41.2834 32.6179 41.2922 33.0779 41.2922C33.5378 41.2922 33.9182 41.2834 34.2189 41.2657C34.5196 41.248 34.8027 41.2303 35.068 41.2126ZM16.5195 41.2126V41.7433C16.0595 41.7787 15.7234 41.8671 15.5111 42.0087C15.3165 42.1502 15.2192 42.3802 15.2192 42.6986C15.2369 42.9993 15.3342 43.4239 15.5111 43.9723L19.6242 56.5238L18.9608 57.1872L22.6758 45.3257L23.0738 45.9625L18.6954 60.1327C18.66 60.1327 18.6246 60.1327 18.5893 60.1327C18.5539 60.1327 18.5185 60.1327 18.4831 60.1327C18.4477 60.1327 18.4124 60.1327 18.377 60.1327C18.3416 60.1327 18.3062 60.1327 18.2708 60.1327L12.6452 43.4416C12.4152 42.7517 12.1234 42.3006 11.7695 42.0883C11.4157 41.876 11.0973 41.761 10.8142 41.7433V41.2126C11.1681 41.2303 11.6015 41.248 12.1145 41.2657C12.6452 41.2834 13.1583 41.2922 13.6536 41.2922C14.2374 41.2922 14.7769 41.2834 15.2723 41.2657C15.7853 41.248 16.201 41.2303 16.5195 41.2126ZM42.9034 41.2126V41.7433C42.3019 41.761 41.842 41.8318 41.5235 41.9556C41.2228 42.0617 41.0193 42.274 40.9132 42.5925C40.8071 42.8932 40.754 43.3708 40.754 44.0254V57.1872C40.754 57.8241 40.8071 58.3017 40.9132 58.6201C41.0193 58.9386 41.2228 59.1509 41.5235 59.257C41.842 59.3631 42.3019 59.4339 42.9034 59.4693V60C42.4965 59.9646 41.9835 59.9469 41.3643 59.9469C40.7628 59.9292 40.1525 59.9204 39.5333 59.9204C38.8434 59.9204 38.1977 59.9292 37.5962 59.9469C36.9947 59.9469 36.5082 59.9646 36.1367 60V59.4693C36.7382 59.4339 37.1893 59.3631 37.4901 59.257C37.8085 59.1509 38.0208 58.9386 38.1269 58.6201C38.2331 58.3017 38.2861 57.8241 38.2861 57.1872V44.0254C38.2861 43.3708 38.2331 42.8932 38.1269 42.5925C38.0208 42.274 37.8085 42.0617 37.4901 41.9556C37.1893 41.8318 36.7382 41.761 36.1367 41.7433V41.2126C36.5082 41.2303 36.9947 41.248 37.5962 41.2657C38.1977 41.2834 38.8434 41.2922 39.5333 41.2922C40.1525 41.2922 40.7628 41.2834 41.3643 41.2657C41.9835 41.248 42.4965 41.2303 42.9034 41.2126ZM61.7934 41.2126V41.7433C61.1919 41.761 60.732 41.8495 60.4136 42.0087C60.1128 42.1679 59.9094 42.4244 59.8032 42.7782C59.6971 43.132 59.644 43.6362 59.644 44.2908V60.1327C59.5379 60.1327 59.4317 60.1327 59.3256 60.1327C59.2371 60.1327 59.1398 60.1327 59.0337 60.1327L47.8886 42.9109V56.9218C47.8886 57.5587 47.9417 58.0629 48.0478 58.4344C48.1717 58.7882 48.4016 59.0447 48.7378 59.2039C49.0916 59.3454 49.6134 59.4339 50.3034 59.4693V60C49.9849 59.9646 49.5692 59.9469 49.0562 59.9469C48.5432 59.9292 48.0567 59.9204 47.5967 59.9204C47.1545 59.9204 46.7033 59.9292 46.2434 59.9469C45.8011 59.9469 45.4296 59.9646 45.1289 60V59.4693C45.7304 59.4339 46.1815 59.3454 46.4822 59.2039C46.8006 59.0447 47.0129 58.7882 47.1191 58.4344C47.2252 58.0629 47.2783 57.5587 47.2783 56.9218V44.0254C47.2783 43.3708 47.2252 42.8932 47.1191 42.5925C47.0129 42.274 46.8006 42.0617 46.4822 41.9556C46.1815 41.8318 45.7304 41.761 45.1289 41.7433V41.2126C45.4296 41.2303 45.8011 41.248 46.2434 41.2657C46.7033 41.2834 47.1545 41.2922 47.5967 41.2922C47.9859 41.2922 48.3574 41.2834 48.7112 41.2657C49.065 41.248 49.3835 41.2303 49.6665 41.2126L59.0337 55.6481V44.2908C59.0337 43.6362 58.9718 43.132 58.8479 42.7782C58.7418 42.4244 58.5118 42.1679 58.158 42.0087C57.8219 41.8495 57.3089 41.761 56.6189 41.7433V41.2126C56.9374 41.2303 57.3531 41.248 57.8661 41.2657C58.3968 41.2834 58.8833 41.2922 59.3256 41.2922C59.7855 41.2922 60.2366 41.2834 60.6789 41.2657C61.1389 41.248 61.5104 41.2303 61.7934 41.2126ZM77.1061 41.2126C77.0353 41.8318 76.9822 42.4332 76.9469 43.017C76.9292 43.6008 76.9203 44.0431 76.9203 44.3438C76.9203 44.6623 76.9292 44.9718 76.9469 45.2726C76.9645 45.5556 76.9822 45.7945 76.9999 45.9891H76.3896C76.2835 44.9453 76.1331 44.1227 75.9385 43.5212C75.7439 42.902 75.4078 42.4686 74.9301 42.221C74.4702 41.9556 73.7714 41.8229 72.8338 41.8229H70.6313C70.0298 41.8229 69.5699 41.876 69.2515 41.9821C68.9507 42.0706 68.7473 42.274 68.6411 42.5925C68.535 42.8932 68.4819 43.3708 68.4819 44.0254V57.1872C68.4819 57.8241 68.535 58.3017 68.6411 58.6201C68.7473 58.9386 68.9507 59.1509 69.2515 59.257C69.5699 59.3454 70.0298 59.3897 70.6313 59.3897H72.5684C73.6829 59.3897 74.5232 59.2393 75.0893 58.9386C75.6731 58.6378 76.0889 58.1513 76.3365 57.4791C76.6019 56.7892 76.7965 55.8604 76.9203 54.6928H77.5306C77.4776 55.1705 77.451 55.8073 77.451 56.6034C77.451 56.9395 77.4599 57.426 77.4776 58.0629C77.513 58.6821 77.566 59.3278 77.6368 60C76.7346 59.9646 75.7174 59.9469 74.5852 59.9469C73.453 59.9292 72.4446 59.9204 71.5601 59.9204C71.1709 59.9204 70.6667 59.9204 70.0475 59.9204C69.446 59.9204 68.7915 59.9292 68.0839 59.9469C67.3762 59.9469 66.6598 59.9558 65.9345 59.9735C65.2092 59.9735 64.5192 59.9823 63.8647 60V59.4693C64.4661 59.4339 64.9173 59.3631 65.218 59.257C65.5364 59.1509 65.7487 58.9386 65.8549 58.6201C65.961 58.3017 66.0141 57.8241 66.0141 57.1872V44.0254C66.0141 43.3708 65.961 42.8932 65.8549 42.5925C65.7487 42.274 65.5364 42.0617 65.218 41.9556C64.9173 41.8318 64.4661 41.761 63.8647 41.7433V41.2126C64.5192 41.2303 65.2092 41.248 65.9345 41.2657C66.6598 41.2657 67.3762 41.2745 68.0839 41.2922C68.7915 41.2922 69.446 41.2922 70.0475 41.2922C70.6667 41.2922 71.1709 41.2922 71.5601 41.2922C72.3738 41.2922 73.2938 41.2922 74.3198 41.2922C75.3636 41.2745 76.2923 41.248 77.1061 41.2126ZM72.5419 50.2879C72.5419 50.2879 72.5419 50.3763 72.5419 50.5532C72.5419 50.7301 72.5419 50.8186 72.5419 50.8186H67.6858C67.6858 50.8186 67.6858 50.7301 67.6858 50.5532C67.6858 50.3763 67.6858 50.2879 67.6858 50.2879H72.5419ZM73.3114 46.7851C73.2407 47.7935 73.2053 48.563 73.2053 49.0938C73.223 49.6245 73.2318 50.111 73.2318 50.5532C73.2318 50.9955 73.2407 51.482 73.2584 52.0127C73.2761 52.5434 73.3203 53.313 73.3911 54.3213H72.7807C72.71 53.7552 72.6215 53.2068 72.5154 52.6761C72.4269 52.1277 72.2146 51.6854 71.8785 51.3493C71.5601 50.9955 71.0117 50.8186 70.2333 50.8186V50.2879C70.8171 50.2879 71.2593 50.1729 71.5601 49.9429C71.8785 49.6952 72.1085 49.3856 72.25 49.0141C72.3915 48.6426 72.4888 48.2623 72.5419 47.8731C72.595 47.4662 72.648 47.1036 72.7011 46.7851H73.3114ZM95.3733 40.8411C96.5409 40.8411 97.4962 41.018 98.2392 41.3718C98.9999 41.7079 99.6721 42.106 100.256 42.5659C100.61 42.8313 100.875 42.8667 101.052 42.6721C101.247 42.4598 101.379 41.9733 101.45 41.2126H102.06C102.025 41.8671 101.998 42.6632 101.981 43.6008C101.963 44.5384 101.954 45.7768 101.954 47.3158H101.344C101.22 46.5552 101.105 45.9537 100.999 45.5114C100.893 45.0515 100.76 44.6623 100.601 44.3438C100.459 44.0254 100.265 43.707 100.017 43.3885C99.4687 42.6632 98.7788 42.1413 97.9473 41.8229C97.1159 41.4868 96.2402 41.3187 95.3203 41.3187C94.4534 41.3187 93.6662 41.5399 92.9586 41.9821C92.2686 42.4067 91.6672 43.0259 91.1541 43.8396C90.6588 44.6534 90.2696 45.6352 89.9865 46.7851C89.7212 47.935 89.5885 49.2264 89.5885 50.6594C89.5885 52.1454 89.7389 53.4633 90.0396 54.6132C90.3404 55.7454 90.7561 56.7007 91.2868 57.4791C91.8352 58.2575 92.4721 58.8501 93.1974 59.257C93.9404 59.6462 94.7365 59.8408 95.5856 59.8408C96.3817 59.8408 97.2132 59.6816 98.08 59.3631C98.9468 59.0447 99.6279 58.5317 100.123 57.8241C100.512 57.311 100.778 56.7538 100.919 56.1523C101.079 55.5508 101.22 54.7105 101.344 53.6314H101.954C101.954 55.2412 101.963 56.5415 101.981 57.5322C101.998 58.5051 102.025 59.3278 102.06 60H101.45C101.379 59.2393 101.255 58.7617 101.079 58.5671C100.919 58.3725 100.645 58.399 100.256 58.6467C99.6014 59.1066 98.9026 59.5135 98.1596 59.8673C97.4343 60.2034 96.4967 60.3715 95.3468 60.3715C93.6662 60.3715 92.189 59.9912 90.9153 59.2305C89.6593 58.4698 88.6774 57.3729 87.9698 55.94C87.2799 54.5071 86.9349 52.7822 86.9349 50.7655C86.9349 48.7842 87.2976 47.0505 88.0229 45.5645C88.7482 44.0785 89.7389 42.9197 90.9949 42.0883C92.2686 41.2568 93.7281 40.8411 95.3733 40.8411ZM118.154 41.2126C118.083 41.8318 118.03 42.4332 117.995 43.017C117.977 43.6008 117.968 44.0431 117.968 44.3438C117.968 44.6623 117.977 44.9718 117.995 45.2726C118.012 45.5556 118.03 45.7945 118.048 45.9891H117.437C117.331 44.9453 117.181 44.1227 116.986 43.5212C116.792 42.902 116.455 42.4686 115.978 42.221C115.518 41.9556 114.819 41.8229 113.881 41.8229H111.679C111.078 41.8229 110.618 41.876 110.299 41.9821C109.998 42.0706 109.795 42.274 109.689 42.5925C109.583 42.8932 109.53 43.3708 109.53 44.0254V57.1872C109.53 57.8241 109.583 58.3017 109.689 58.6201C109.795 58.9386 109.998 59.1509 110.299 59.257C110.618 59.3454 111.078 59.3897 111.679 59.3897H113.616C114.731 59.3897 115.571 59.2393 116.137 58.9386C116.721 58.6378 117.137 58.1513 117.384 57.4791C117.65 56.7892 117.844 55.8604 117.968 54.6928H118.578C118.525 55.1705 118.499 55.8073 118.499 56.6034C118.499 56.9395 118.508 57.426 118.525 58.0629C118.561 58.6821 118.614 59.3278 118.684 60C117.782 59.9646 116.765 59.9469 115.633 59.9469C114.501 59.9292 113.492 59.9204 112.608 59.9204C112.219 59.9204 111.714 59.9204 111.095 59.9204C110.494 59.9204 109.839 59.9292 109.132 59.9469C108.424 59.9469 107.707 59.9558 106.982 59.9735C106.257 59.9735 105.567 59.9823 104.912 60V59.4693C105.514 59.4339 105.965 59.3631 106.266 59.257C106.584 59.1509 106.796 58.9386 106.903 58.6201C107.009 58.3017 107.062 57.8241 107.062 57.1872V44.0254C107.062 43.3708 107.009 42.8932 106.903 42.5925C106.796 42.274 106.584 42.0617 106.266 41.9556C105.965 41.8318 105.514 41.761 104.912 41.7433V41.2126C105.567 41.2303 106.257 41.248 106.982 41.2657C107.707 41.2657 108.424 41.2745 109.132 41.2922C109.839 41.2922 110.494 41.2922 111.095 41.2922C111.714 41.2922 112.219 41.2922 112.608 41.2922C113.422 41.2922 114.341 41.2922 115.368 41.2922C116.411 41.2745 117.34 41.248 118.154 41.2126ZM113.59 50.2879C113.59 50.2879 113.59 50.3763 113.59 50.5532C113.59 50.7301 113.59 50.8186 113.59 50.8186H108.734C108.734 50.8186 108.734 50.7301 108.734 50.5532C108.734 50.3763 108.734 50.2879 108.734 50.2879H113.59ZM114.359 46.7851C114.288 47.7935 114.253 48.563 114.253 49.0938C114.271 49.6245 114.28 50.111 114.28 50.5532C114.28 50.9955 114.288 51.482 114.306 52.0127C114.324 52.5434 114.368 53.313 114.439 54.3213H113.828C113.758 53.7552 113.669 53.2068 113.563 52.6761C113.475 52.1277 113.262 51.6854 112.926 51.3493C112.608 50.9955 112.059 50.8186 111.281 50.8186V50.2879C111.865 50.2879 112.307 50.1729 112.608 49.9429C112.926 49.6952 113.156 49.3856 113.298 49.0141C113.439 48.6426 113.537 48.2623 113.59 47.8731C113.643 47.4662 113.696 47.1036 113.749 46.7851H114.359ZM127.849 41.2126V41.7433C127.248 41.761 126.788 41.8318 126.469 41.9556C126.169 42.0617 125.965 42.274 125.859 42.5925C125.753 42.8932 125.7 43.3708 125.7 44.0254V57.1872C125.7 57.8241 125.753 58.3017 125.859 58.6201C125.965 58.9386 126.169 59.1509 126.469 59.257C126.788 59.3454 127.248 59.3897 127.849 59.3897H129.786C130.618 59.3897 131.29 59.3012 131.803 59.1243C132.334 58.9474 132.75 58.6732 133.05 58.3017C133.369 57.9125 133.608 57.3995 133.767 56.7626C133.926 56.1258 134.05 55.3474 134.138 54.4275H134.749C134.696 54.9759 134.669 55.7012 134.669 56.6034C134.669 56.9395 134.678 57.426 134.696 58.0629C134.731 58.6821 134.784 59.3278 134.855 60C133.953 59.9646 132.935 59.9469 131.803 59.9469C130.671 59.9292 129.663 59.9204 128.778 59.9204C128.389 59.9204 127.885 59.9204 127.266 59.9204C126.664 59.9204 126.009 59.9292 125.302 59.9469C124.594 59.9469 123.878 59.9558 123.152 59.9735C122.427 59.9735 121.737 59.9823 121.083 60V59.4693C121.684 59.4339 122.135 59.3631 122.436 59.257C122.754 59.1509 122.967 58.9386 123.073 58.6201C123.179 58.3017 123.232 57.8241 123.232 57.1872V44.0254C123.232 43.3708 123.179 42.8932 123.073 42.5925C122.967 42.274 122.754 42.0617 122.436 41.9556C122.135 41.8318 121.684 41.761 121.083 41.7433V41.2126C121.454 41.2303 121.941 41.248 122.542 41.2657C123.144 41.2834 123.789 41.2922 124.479 41.2922C125.098 41.2922 125.709 41.2834 126.31 41.2657C126.929 41.248 127.442 41.2303 127.849 41.2126ZM143.45 41.2126V41.7433C142.848 41.761 142.388 41.8318 142.07 41.9556C141.769 42.0617 141.565 42.274 141.459 42.5925C141.353 42.8932 141.3 43.3708 141.3 44.0254V57.1872C141.3 57.8241 141.353 58.3017 141.459 58.6201C141.565 58.9386 141.769 59.1509 142.07 59.257C142.388 59.3454 142.848 59.3897 143.45 59.3897H145.387C146.218 59.3897 146.89 59.3012 147.403 59.1243C147.934 58.9474 148.35 58.6732 148.651 58.3017C148.969 57.9125 149.208 57.3995 149.367 56.7626C149.526 56.1258 149.65 55.3474 149.739 54.4275H150.349C150.296 54.9759 150.269 55.7012 150.269 56.6034C150.269 56.9395 150.278 57.426 150.296 58.0629C150.331 58.6821 150.384 59.3278 150.455 60C149.553 59.9646 148.536 59.9469 147.403 59.9469C146.271 59.9292 145.263 59.9204 144.378 59.9204C143.989 59.9204 143.485 59.9204 142.866 59.9204C142.264 59.9204 141.61 59.9292 140.902 59.9469C140.194 59.9469 139.478 59.9558 138.753 59.9735C138.027 59.9735 137.337 59.9823 136.683 60V59.4693C137.284 59.4339 137.735 59.3631 138.036 59.257C138.355 59.1509 138.567 58.9386 138.673 58.6201C138.779 58.3017 138.832 57.8241 138.832 57.1872V44.0254C138.832 43.3708 138.779 42.8932 138.673 42.5925C138.567 42.274 138.355 42.0617 138.036 41.9556C137.735 41.8318 137.284 41.761 136.683 41.7433V41.2126C137.054 41.2303 137.541 41.248 138.142 41.2657C138.744 41.2834 139.39 41.2922 140.079 41.2922C140.699 41.2922 141.309 41.2834 141.91 41.2657C142.53 41.248 143.043 41.2303 143.45 41.2126ZM159.74 41.0799L166.214 57.771C166.48 58.4432 166.781 58.8943 167.117 59.1243C167.453 59.3366 167.762 59.4516 168.045 59.4693V60C167.692 59.9646 167.258 59.9469 166.745 59.9469C166.232 59.9292 165.719 59.9204 165.206 59.9204C164.516 59.9204 163.87 59.9292 163.269 59.9469C162.667 59.9469 162.181 59.9646 161.809 60V59.4693C162.712 59.4339 163.287 59.2835 163.534 59.0182C163.782 58.7351 163.729 58.1425 163.375 57.2403L158.439 44.0519L158.864 43.707L154.247 55.7012C153.964 56.4088 153.796 57.0103 153.743 57.5056C153.689 57.9833 153.734 58.3636 153.875 58.6467C154.034 58.9297 154.291 59.1332 154.645 59.257C155.016 59.3808 155.476 59.4516 156.025 59.4693V60C155.529 59.9646 155.007 59.9469 154.459 59.9469C153.928 59.9292 153.433 59.9204 152.973 59.9204C152.531 59.9204 152.15 59.9292 151.832 59.9469C151.531 59.9469 151.248 59.9646 150.983 60V59.4693C151.337 59.3808 151.699 59.1774 152.071 58.859C152.442 58.5228 152.778 57.9567 153.079 57.1607L159.315 41.0799C159.386 41.0799 159.457 41.0799 159.527 41.0799C159.598 41.0799 159.669 41.0799 159.74 41.0799ZM162.977 52.3577V52.8884H155.069L155.335 52.3577H162.977ZM168.479 41.2126C168.851 41.2303 169.337 41.248 169.939 41.2657C170.54 41.2834 171.133 41.2922 171.717 41.2922C172.548 41.2922 173.344 41.2834 174.105 41.2657C174.866 41.248 175.405 41.2391 175.724 41.2391C177.157 41.2391 178.342 41.4426 179.279 41.8495C180.235 42.2563 180.942 42.8136 181.402 43.5212C181.88 44.2111 182.119 44.9895 182.119 45.8564C182.119 46.3871 182.013 46.9532 181.8 47.5547C181.588 48.1561 181.217 48.7222 180.686 49.253C180.173 49.7837 179.465 50.2259 178.563 50.5798C177.661 50.9159 176.52 51.0839 175.14 51.0839H172.592V50.5532H174.874C176.13 50.5532 177.086 50.3586 177.74 49.9694C178.413 49.5626 178.864 49.0318 179.094 48.3773C179.341 47.705 179.465 46.962 179.465 46.1483C179.465 44.7507 179.129 43.6716 178.457 42.9109C177.802 42.1325 176.67 41.7433 175.06 41.7433C174.246 41.7433 173.716 41.8937 173.468 42.1944C173.22 42.4952 173.097 43.1055 173.097 44.0254V57.1872C173.097 57.8241 173.15 58.3017 173.256 58.6201C173.362 58.9386 173.565 59.1509 173.866 59.257C174.184 59.3631 174.644 59.4339 175.246 59.4693V60C174.839 59.9646 174.326 59.9469 173.707 59.9469C173.105 59.9292 172.495 59.9204 171.876 59.9204C171.186 59.9204 170.54 59.9292 169.939 59.9469C169.337 59.9469 168.851 59.9646 168.479 60V59.4693C169.081 59.4339 169.532 59.3631 169.833 59.257C170.151 59.1509 170.363 58.9386 170.469 58.6201C170.576 58.3017 170.629 57.8241 170.629 57.1872V44.0254C170.629 43.3708 170.576 42.8932 170.469 42.5925C170.363 42.274 170.151 42.0617 169.833 41.9556C169.532 41.8318 169.081 41.761 168.479 41.7433V41.2126ZM172.698 50.6328C173.654 50.6682 174.406 50.7124 174.954 50.7655C175.502 50.8009 175.945 50.8363 176.281 50.8717C176.635 50.907 176.971 50.9513 177.289 51.0043C178.474 51.1989 179.324 51.5616 179.837 52.0923C180.367 52.6053 180.757 53.4103 181.004 54.5071L181.668 57.2137C181.845 57.9921 182.021 58.5582 182.198 58.912C182.393 59.2481 182.685 59.4074 183.074 59.3897C183.375 59.372 183.622 59.2747 183.817 59.0978C184.029 58.9209 184.25 58.6821 184.48 58.3813L184.878 58.6732C184.507 59.2216 184.118 59.6462 183.711 59.9469C183.322 60.23 182.764 60.3715 182.039 60.3715C181.385 60.3715 180.81 60.1769 180.314 59.7877C179.819 59.3985 179.447 58.6378 179.2 57.5056L178.616 54.852C178.457 54.0913 178.271 53.4368 178.059 52.8884C177.864 52.3223 177.581 51.88 177.21 51.5616C176.856 51.2432 176.325 51.0839 175.617 51.0839H172.752L172.698 50.6328Z" fill="#E6E3C4"/>
</svg>
