<svg width="201" height="208" viewBox="0 0 201 208" fill="none" xmlns="http://www.w3.org/2000/svg">
<path d="M100.369 173.031C138.216 173.031 168.897 142.35 168.897 104.503C168.897 66.656 138.216 35.975 100.369 35.975C62.522 35.975 31.8409 66.656 31.8409 104.503C31.8409 142.35 62.522 173.031 100.369 173.031Z" fill="#282828"/>
<path fill-rule="evenodd" clip-rule="evenodd" d="M150.526 170.064L150.556 170.084L150.554 170.072L150.526 170.064ZM149.542 169.818C139.685 168.035 143.678 190.518 158.98 179.671C172.305 170.225 152.339 154.623 166.771 142.114L166.772 142.115C162.446 152.27 163.599 153.022 166.654 164.027C173.121 187.324 148.369 193.159 140.641 183.438C125.076 163.861 163.079 154.825 156.488 172.086C155.597 173.917 153.39 174.68 151.559 173.79C150.038 173.051 149.254 171.404 149.542 169.818Z" fill="#282828"/>
<path fill-rule="evenodd" clip-rule="evenodd" d="M173.821 151.727C173.807 151.734 173.792 151.74 173.777 151.746V151.739C173.792 151.734 173.806 151.731 173.821 151.727ZM174.082 151.665C178.702 150.782 176.972 163.07 169.411 159.163C155.972 152.22 174.57 141.348 169.517 129.057C169.132 137.304 168.622 137.145 164.167 144.504C155.242 159.243 170.908 167.468 177.593 161.989C189.542 152.197 171.045 140.272 169.136 151.053C169.019 152.425 170.037 153.632 171.409 153.749C172.717 153.86 173.876 152.94 174.082 151.665Z" fill="#282828"/>
<path fill-rule="evenodd" clip-rule="evenodd" d="M185.988 120.772L185.971 120.765L185.973 120.771L185.988 120.772ZM186.718 120.769C193.957 120.276 186.883 105.532 178.649 115.022C171.226 123.577 188.977 144.821 180.314 158.372C183.261 142.983 175.136 135.371 173.183 122.538C171.474 111.309 183.141 103.604 190.695 109.731C204.749 121.129 179.827 133.389 181.496 120.39C181.805 118.963 183.212 118.057 184.639 118.366C185.818 118.621 186.64 119.624 186.718 120.769Z" fill="#282828"/>
<path fill-rule="evenodd" clip-rule="evenodd" d="M150.526 37.964L150.556 37.944L150.554 37.956L150.526 37.964ZM149.542 38.21C139.685 39.993 143.678 17.509 158.98 28.357C172.305 37.803 152.339 53.405 166.771 65.913C162.445 55.758 163.599 55.006 166.654 44.001C173.121 20.703 148.369 14.869 140.641 24.59C125.076 44.167 163.079 53.203 156.488 35.942C155.597 34.111 153.39 33.348 151.559 34.238C150.038 34.977 149.254 36.624 149.542 38.21Z" fill="#282828"/>
<path fill-rule="evenodd" clip-rule="evenodd" d="M173.821 56.301C173.807 56.294 173.792 56.288 173.777 56.283V56.29C173.792 56.294 173.806 56.297 173.821 56.301ZM174.082 56.362C178.702 57.245 176.972 44.958 169.411 48.864C155.972 55.807 174.57 66.679 169.517 78.97C169.132 70.723 168.622 70.882 164.167 63.524C155.242 48.785 170.908 40.561 177.593 46.039C189.542 55.831 171.045 67.756 169.136 56.975C169.019 55.603 170.037 54.395 171.409 54.279C172.717 54.168 173.876 55.088 174.082 56.362Z" fill="#282828"/>
<path fill-rule="evenodd" clip-rule="evenodd" d="M185.988 87.256L185.971 87.263L185.973 87.257L185.988 87.256ZM186.718 87.259C193.957 87.752 186.883 102.497 178.649 93.006C171.226 84.45 188.977 63.207 180.314 49.656C183.261 65.045 175.136 72.657 173.183 85.49C171.474 96.719 183.141 104.424 190.695 98.298C204.749 86.9 179.827 74.64 181.496 87.639C181.805 89.066 183.212 89.972 184.639 89.663C185.818 89.407 186.64 88.404 186.718 87.259Z" fill="#282828"/>
<path fill-rule="evenodd" clip-rule="evenodd" d="M200.738 104.041C200.738 95.2451 190.298 104.645 177.684 104.572C190.226 104.427 200.738 112.837 200.738 104.041Z" fill="#282828"/>
<path fill-rule="evenodd" clip-rule="evenodd" d="M50.212 170.064L50.182 170.084L50.184 170.072L50.212 170.064ZM51.196 169.818C61.054 168.035 57.06 190.518 41.758 179.671C28.433 170.225 48.399 154.623 33.967 142.114L33.966 142.115C38.292 152.27 37.139 153.022 34.084 164.027C27.617 187.324 52.368 193.159 60.097 183.438C75.662 163.861 37.659 154.825 44.25 172.086C45.141 173.917 47.348 174.68 49.18 173.79C50.7 173.051 51.484 171.404 51.196 169.818Z" fill="#282828"/>
<path fill-rule="evenodd" clip-rule="evenodd" d="M26.917 151.727C26.931 151.734 26.9461 151.74 26.9611 151.746V151.739C26.9461 151.734 26.932 151.731 26.917 151.727ZM26.6561 151.665C22.0361 150.782 23.766 163.07 31.327 159.163C44.766 152.22 26.167 141.348 31.221 129.057C31.606 137.304 32.1161 137.145 36.5721 144.504C45.4971 159.243 29.831 167.468 23.146 161.989C11.197 152.197 29.6941 140.272 31.6031 151.053C31.7201 152.425 30.702 153.632 29.329 153.749C28.021 153.86 26.8631 152.94 26.6561 151.665Z" fill="#282828"/>
<path fill-rule="evenodd" clip-rule="evenodd" d="M14.75 120.772L14.767 120.765L14.765 120.771L14.75 120.772ZM14.02 120.769C6.78197 120.276 13.855 105.532 22.089 115.022C29.512 123.577 11.76 144.821 20.423 158.372C17.476 142.983 25.601 135.371 27.554 122.538C29.263 111.309 17.596 103.604 10.042 109.731C-4.01203 121.129 20.91 133.389 19.24 120.39C18.931 118.963 17.524 118.057 16.097 118.366C14.92 118.621 14.098 119.624 14.02 120.769Z" fill="#282828"/>
<path fill-rule="evenodd" clip-rule="evenodd" d="M50.212 37.964L50.182 37.944L50.184 37.956L50.212 37.964ZM51.196 38.21C61.054 39.993 57.06 17.509 41.758 28.357C28.433 37.803 48.399 53.405 33.967 65.913C38.293 55.758 37.139 55.006 34.084 44.001C27.617 20.703 52.368 14.869 60.097 24.59C75.662 44.167 37.659 53.203 44.25 35.942C45.141 34.111 47.348 33.348 49.18 34.238C50.7 34.977 51.484 36.624 51.196 38.21Z" fill="#282828"/>
<path fill-rule="evenodd" clip-rule="evenodd" d="M26.917 56.301C26.931 56.294 26.9461 56.288 26.9611 56.283V56.29C26.9461 56.294 26.932 56.297 26.917 56.301ZM26.6561 56.362C22.0361 57.245 23.766 44.958 31.327 48.864C44.766 55.807 26.167 66.679 31.221 78.97C31.606 70.723 32.1161 70.882 36.5721 63.524C45.4971 48.785 29.831 40.561 23.146 46.039C11.197 55.831 29.6941 67.756 31.6031 56.975C31.7201 55.603 30.702 54.395 29.329 54.279C28.021 54.168 26.8631 55.088 26.6561 56.362Z" fill="#282828"/>
<path fill-rule="evenodd" clip-rule="evenodd" d="M14.75 87.256L14.767 87.263L14.765 87.257L14.75 87.256ZM14.02 87.259C6.78197 87.752 13.855 102.497 22.089 93.006C29.512 84.45 11.76 63.207 20.423 49.656C17.476 65.045 25.601 72.657 27.554 85.49C29.263 96.719 17.596 104.424 10.042 98.298C-4.01203 86.9 20.91 74.64 19.24 87.639C18.931 89.066 17.524 89.972 16.097 89.663C14.92 89.407 14.098 88.404 14.02 87.259Z" fill="#282828"/>
<path fill-rule="evenodd" clip-rule="evenodd" d="M0 104.041C0 95.2451 10.44 104.645 23.055 104.572C10.512 104.427 0 112.837 0 104.041Z" fill="#282828"/>
<path fill-rule="evenodd" clip-rule="evenodd" d="M118.784 191.527L118.777 191.508L118.784 191.511V191.527ZM118.782 192.33C118.241 200.285 102.038 192.511 112.467 183.462C121.869 175.305 145.213 194.812 160.104 185.292C143.193 188.531 134.828 179.602 120.726 177.456C108.387 175.578 99.9191 188.399 106.652 196.7C119.177 212.144 132.65 184.757 118.365 186.592C116.797 186.932 115.801 188.478 116.141 190.046C116.421 191.34 117.523 192.244 118.782 192.33Z" fill="#282828"/>
<path fill-rule="evenodd" clip-rule="evenodd" d="M81.954 191.527L81.961 191.508L81.954 191.511V191.527ZM81.957 192.33C82.498 200.285 98.701 192.511 88.272 183.462C78.87 175.305 55.526 194.812 40.635 185.292C57.546 188.531 65.911 179.602 80.013 177.456C92.352 175.578 100.82 188.399 94.087 196.7C81.562 212.144 68.089 184.757 82.374 186.592C83.942 186.932 84.937 188.478 84.598 190.046C84.317 191.34 83.215 192.244 81.957 192.33Z" fill="#282828"/>
<path fill-rule="evenodd" clip-rule="evenodd" d="M100.398 207.736C90.732 207.736 101.062 196.264 100.982 182.401C100.822 196.185 110.064 207.736 100.398 207.736Z" fill="#282828"/>
<path fill-rule="evenodd" clip-rule="evenodd" d="M118.784 16.209L118.777 16.228L118.784 16.225V16.209ZM118.782 15.407C118.241 7.452 102.038 15.226 112.467 24.275C121.869 32.432 145.213 12.925 160.104 22.445C143.193 19.206 134.828 28.135 120.726 30.281C108.387 32.159 99.9191 19.338 106.652 11.037C119.177 -4.40699 132.65 22.981 118.365 21.145C116.797 20.805 115.801 19.259 116.141 17.691C116.421 16.396 117.523 15.492 118.782 15.407Z" fill="#282828"/>
<path fill-rule="evenodd" clip-rule="evenodd" d="M81.954 16.209L81.961 16.228L81.954 16.225V16.209ZM81.957 15.407C82.498 7.452 98.701 15.226 88.272 24.275C78.87 32.432 55.526 12.925 40.635 22.445C57.546 19.206 65.911 28.135 80.013 30.281C92.352 32.159 100.82 19.338 94.087 11.037C81.562 -4.40699 68.089 22.981 82.374 21.145C83.942 20.805 84.937 19.259 84.598 17.691C84.317 16.396 83.215 15.492 81.957 15.407Z" fill="#282828"/>
<path fill-rule="evenodd" clip-rule="evenodd" d="M100.398 0C90.732 0 101.062 11.472 100.982 25.335C100.822 11.551 110.064 0 100.398 0Z" fill="#282828"/>
<path d="M100.369 166.78C134.764 166.78 162.646 138.898 162.646 104.503C162.646 70.1083 134.764 42.226 100.369 42.226C65.9744 42.226 38.092 70.1083 38.092 104.503C38.092 138.898 65.9744 166.78 100.369 166.78Z" fill="white" stroke="#363636" stroke-width="3.1201" stroke-miterlimit="22.9256" stroke-linecap="round" stroke-linejoin="round"/>
<path d="M62.895 98.73C64.435 98.73 65.695 98.9633 66.675 99.43C67.6783 99.8733 68.565 100.398 69.335 101.005C69.8017 101.355 70.1517 101.402 70.385 101.145C70.6417 100.865 70.8167 100.223 70.91 99.22H71.715C71.6683 100.13 71.6333 101.238 71.61 102.545C71.5867 103.828 71.575 105.543 71.575 107.69H70.77C70.6533 106.617 70.5017 105.707 70.315 104.96C70.1283 104.19 69.8717 103.513 69.545 102.93C69.2183 102.347 68.7517 101.822 68.145 101.355C67.5617 100.772 66.885 100.34 66.115 100.06C65.345 99.78 64.54 99.64 63.7 99.64C62.44 99.64 61.3667 99.9783 60.48 100.655C59.5933 101.308 58.87 102.207 58.31 103.35C57.7733 104.493 57.3767 105.788 57.12 107.235C56.8633 108.658 56.735 110.14 56.735 111.68C56.735 113.243 56.8633 114.748 57.12 116.195C57.4 117.618 57.82 118.89 58.38 120.01C58.9633 121.13 59.71 122.017 60.62 122.67C61.53 123.323 62.6033 123.65 63.84 123.65C64.61 123.65 65.38 123.51 66.15 123.23C66.9433 122.927 67.62 122.495 68.18 121.935C69.09 121.235 69.7083 120.372 70.035 119.345C70.3617 118.295 70.6067 116.907 70.77 115.18H71.575C71.575 117.397 71.5867 119.193 71.61 120.57C71.6333 121.923 71.6683 123.067 71.715 124H70.91C70.8167 122.997 70.6533 122.367 70.42 122.11C70.21 121.853 69.8483 121.888 69.335 122.215C68.4717 122.822 67.55 123.358 66.57 123.825C65.6133 124.268 64.3767 124.49 62.86 124.49C60.3867 124.49 58.2167 123.988 56.35 122.985C54.5067 121.982 53.0717 120.535 52.045 118.645C51.0183 116.755 50.505 114.48 50.505 111.82C50.505 109.207 51.03 106.92 52.08 104.96C53.1533 103 54.6117 101.472 56.455 100.375C58.3217 99.2783 60.4683 98.73 62.895 98.73ZM83.5477 105.415C85.6011 105.415 87.2111 106.022 88.3777 107.235C89.5444 108.448 90.1277 110.432 90.1277 113.185H78.6127L78.5427 112.52H85.7177C85.7411 111.377 85.6711 110.327 85.5077 109.37C85.3444 108.39 85.0877 107.608 84.7377 107.025C84.3877 106.442 83.9211 106.15 83.3377 106.15C82.5211 106.15 81.8211 106.663 81.2377 107.69C80.6777 108.717 80.3394 110.42 80.2227 112.8L80.3277 113.01C80.3044 113.29 80.2811 113.582 80.2577 113.885C80.2577 114.188 80.2577 114.503 80.2577 114.83C80.2577 116.44 80.4794 117.747 80.9227 118.75C81.3894 119.753 81.9727 120.488 82.6727 120.955C83.3727 121.398 84.0844 121.62 84.8077 121.62C85.2977 121.62 85.7994 121.55 86.3127 121.41C86.8494 121.247 87.3861 120.967 87.9227 120.57C88.4594 120.15 88.9611 119.567 89.4277 118.82L90.0577 119.03C89.7777 119.917 89.3344 120.78 88.7277 121.62C88.1211 122.46 87.3511 123.148 86.4177 123.685C85.4844 124.222 84.3644 124.49 83.0577 124.49C81.4711 124.49 80.0711 124.152 78.8577 123.475C77.6444 122.798 76.6877 121.772 75.9877 120.395C75.3111 119.018 74.9727 117.268 74.9727 115.145C74.9727 112.975 75.3344 111.167 76.0577 109.72C76.8044 108.273 77.8194 107.2 79.1027 106.5C80.4094 105.777 81.8911 105.415 83.5477 105.415ZM99.2945 96.595V120.745C99.2945 121.725 99.4578 122.39 99.7845 122.74C100.134 123.09 100.718 123.265 101.534 123.265V124C101.091 123.977 100.426 123.953 99.5395 123.93C98.6528 123.883 97.7545 123.86 96.8445 123.86C95.9345 123.86 95.0128 123.883 94.0795 123.93C93.1695 123.953 92.4811 123.977 92.0145 124V123.265C92.8311 123.265 93.4028 123.09 93.7295 122.74C94.0795 122.39 94.2545 121.725 94.2545 120.745V100.795C94.2545 99.745 94.0911 98.975 93.7645 98.485C93.4611 97.9717 92.8778 97.715 92.0145 97.715V96.98C92.7611 97.05 93.4845 97.085 94.1845 97.085C95.1411 97.085 96.0511 97.05 96.9145 96.98C97.7778 96.8867 98.5711 96.7583 99.2945 96.595ZM110.369 96.595V120.745C110.369 121.725 110.532 122.39 110.859 122.74C111.209 123.09 111.792 123.265 112.609 123.265V124C112.165 123.977 111.5 123.953 110.614 123.93C109.727 123.883 108.829 123.86 107.919 123.86C107.009 123.86 106.087 123.883 105.154 123.93C104.244 123.953 103.555 123.977 103.089 124V123.265C103.905 123.265 104.477 123.09 104.804 122.74C105.154 122.39 105.329 121.725 105.329 120.745V100.795C105.329 99.745 105.165 98.975 104.839 98.485C104.535 97.9717 103.952 97.715 103.089 97.715V96.98C103.835 97.05 104.559 97.085 105.259 97.085C106.215 97.085 107.125 97.05 107.989 96.98C108.852 96.8867 109.645 96.7583 110.369 96.595ZM118.928 124.245C117.878 124.245 117.003 124.047 116.303 123.65C115.603 123.253 115.089 122.728 114.763 122.075C114.436 121.398 114.273 120.663 114.273 119.87C114.273 118.867 114.494 118.05 114.938 117.42C115.404 116.79 115.999 116.277 116.723 115.88C117.446 115.483 118.204 115.157 118.998 114.9C119.814 114.643 120.584 114.398 121.308 114.165C122.054 113.908 122.649 113.617 123.093 113.29C123.559 112.94 123.793 112.497 123.793 111.96V109.23C123.793 108.623 123.688 108.087 123.478 107.62C123.291 107.13 122.988 106.757 122.568 106.5C122.171 106.243 121.646 106.115 120.993 106.115C120.526 106.115 120.059 106.185 119.593 106.325C119.126 106.442 118.741 106.652 118.438 106.955C119.091 107.188 119.593 107.55 119.943 108.04C120.316 108.507 120.503 109.043 120.503 109.65C120.503 110.443 120.223 111.073 119.663 111.54C119.126 112.007 118.484 112.24 117.738 112.24C116.898 112.24 116.256 111.983 115.813 111.47C115.393 110.933 115.183 110.292 115.183 109.545C115.183 108.868 115.346 108.308 115.673 107.865C116.023 107.422 116.501 107.002 117.108 106.605C117.761 106.232 118.543 105.94 119.453 105.73C120.386 105.52 121.389 105.415 122.463 105.415C123.536 105.415 124.504 105.532 125.368 105.765C126.231 105.975 126.954 106.372 127.538 106.955C128.074 107.492 128.424 108.157 128.588 108.95C128.751 109.72 128.833 110.7 128.833 111.89V121.41C128.833 121.993 128.891 122.402 129.008 122.635C129.124 122.845 129.323 122.95 129.603 122.95C129.813 122.95 130.011 122.892 130.198 122.775C130.408 122.658 130.629 122.518 130.863 122.355L131.213 122.95C130.723 123.37 130.151 123.697 129.498 123.93C128.868 124.14 128.156 124.245 127.363 124.245C126.499 124.245 125.811 124.128 125.298 123.895C124.784 123.638 124.411 123.3 124.178 122.88C123.968 122.46 123.863 121.97 123.863 121.41C123.303 122.297 122.626 122.997 121.833 123.51C121.039 124 120.071 124.245 118.928 124.245ZM121.413 122.005C121.879 122.005 122.299 121.9 122.673 121.69C123.069 121.457 123.443 121.083 123.793 120.57V113.395C123.583 113.745 123.291 114.06 122.918 114.34C122.544 114.62 122.148 114.912 121.728 115.215C121.308 115.495 120.899 115.81 120.503 116.16C120.129 116.51 119.826 116.942 119.593 117.455C119.359 117.968 119.243 118.587 119.243 119.31C119.243 120.22 119.441 120.897 119.838 121.34C120.234 121.783 120.759 122.005 121.413 122.005ZM144.253 105.415C145 105.415 145.606 105.578 146.073 105.905C146.54 106.208 146.878 106.605 147.088 107.095C147.321 107.585 147.438 108.098 147.438 108.635C147.438 109.498 147.181 110.21 146.668 110.77C146.178 111.307 145.525 111.575 144.708 111.575C143.891 111.575 143.25 111.377 142.783 110.98C142.34 110.56 142.118 110.012 142.118 109.335C142.118 108.682 142.258 108.145 142.538 107.725C142.841 107.282 143.215 106.908 143.658 106.605C143.331 106.512 143.005 106.523 142.678 106.64C142.235 106.71 141.815 106.897 141.418 107.2C141.021 107.48 140.683 107.842 140.403 108.285C140.123 108.705 139.901 109.172 139.738 109.685C139.575 110.175 139.493 110.653 139.493 111.12V120.395C139.493 121.515 139.761 122.273 140.298 122.67C140.858 123.067 141.686 123.265 142.783 123.265V124C142.246 123.977 141.465 123.953 140.438 123.93C139.411 123.883 138.338 123.86 137.218 123.86C136.285 123.86 135.34 123.883 134.383 123.93C133.426 123.953 132.703 123.977 132.213 124V123.265C133.03 123.265 133.601 123.09 133.928 122.74C134.278 122.39 134.453 121.725 134.453 120.745V109.72C134.453 108.67 134.29 107.9 133.963 107.41C133.66 106.897 133.076 106.64 132.213 106.64V105.905C132.96 105.975 133.683 106.01 134.383 106.01C135.363 106.01 136.273 105.975 137.113 105.905C137.976 105.812 138.77 105.683 139.493 105.52V108.775C139.773 108.145 140.146 107.573 140.613 107.06C141.08 106.547 141.616 106.15 142.223 105.87C142.83 105.567 143.506 105.415 144.253 105.415Z" fill="#363636"/>
<path d="M93.5705 80.6263V80.9476C93.367 80.9905 93.1421 81.1136 92.8958 81.3171C92.6495 81.5099 92.4513 81.8526 92.3014 82.3452L89.2652 92.0803C89.2438 92.0803 89.2224 92.0803 89.201 92.0803C89.1795 92.0803 89.1581 92.0803 89.1367 92.0803C89.1153 92.0803 89.0939 92.0803 89.0724 92.0803C89.051 92.0803 89.0296 92.0803 89.0082 92.0803L85.6025 81.9758C85.4633 81.5581 85.308 81.285 85.1366 81.1565C84.9653 81.0279 84.8046 80.9583 84.6547 80.9476V80.6263C84.8475 80.637 85.0884 80.6478 85.3776 80.6585C85.6668 80.6692 85.9452 80.6745 86.213 80.6745C86.6306 80.6745 87.0215 80.6692 87.3857 80.6585C87.7498 80.6478 88.0443 80.637 88.2692 80.6263V80.9476C87.9479 80.9583 87.6909 80.9905 87.4981 81.044C87.3161 81.0976 87.209 81.2154 87.1768 81.3974C87.1554 81.5795 87.209 81.8794 87.3375 82.297L89.7311 89.7028L89.5062 89.8956L91.6267 83.2288C91.8195 82.6398 91.9051 82.1846 91.8837 81.8633C91.873 81.5313 91.7552 81.301 91.5303 81.1725C91.3054 81.0333 90.9681 80.9583 90.5182 80.9476V80.6263C90.8288 80.637 91.1448 80.6478 91.4661 80.6585C91.7873 80.6692 92.0872 80.6745 92.3657 80.6745C92.6441 80.6745 92.8744 80.6692 93.0564 80.6585C93.2385 80.6478 93.4099 80.637 93.5705 80.6263ZM82.3414 80.6263V80.9476C82.063 80.969 81.8595 81.0226 81.731 81.1083C81.6132 81.1939 81.5543 81.3332 81.5543 81.5259C81.565 81.708 81.6239 81.965 81.731 82.297L84.221 89.8956L83.8194 90.2972L86.0684 83.1163L86.3093 83.5019L83.6587 92.0803C83.6373 92.0803 83.6159 92.0803 83.5944 92.0803C83.573 92.0803 83.5516 92.0803 83.5302 92.0803C83.5088 92.0803 83.4874 92.0803 83.4659 92.0803C83.4445 92.0803 83.4231 92.0803 83.4017 92.0803L79.996 81.9758C79.8568 81.5581 79.6801 81.285 79.4659 81.1565C79.2517 81.0279 79.0589 80.9583 78.8875 80.9476V80.6263C79.1017 80.637 79.3641 80.6478 79.6747 80.6585C79.996 80.6692 80.3066 80.6745 80.6065 80.6745C80.9599 80.6745 81.2865 80.6692 81.5864 80.6585C81.897 80.6478 82.1486 80.637 82.3414 80.6263ZM98.3139 80.6263V80.9476C97.9498 80.9583 97.6713 81.0012 97.4786 81.0761C97.2965 81.1404 97.1733 81.2689 97.1091 81.4617C97.0448 81.6438 97.0127 81.9329 97.0127 82.3292V90.2972C97.0127 90.6827 97.0448 90.9719 97.1091 91.1646C97.1733 91.3574 97.2965 91.4859 97.4786 91.5502C97.6713 91.6145 97.9498 91.6573 98.3139 91.6787V92C98.0676 91.9786 97.757 91.9679 97.3822 91.9679C97.0181 91.9572 96.6486 91.9518 96.2737 91.9518C95.8561 91.9518 95.4652 91.9572 95.101 91.9679C94.7369 91.9679 94.4424 91.9786 94.2175 92V91.6787C94.5816 91.6573 94.8547 91.6145 95.0368 91.5502C95.2295 91.4859 95.3581 91.3574 95.4223 91.1646C95.4866 90.9719 95.5187 90.6827 95.5187 90.2972V82.3292C95.5187 81.9329 95.4866 81.6438 95.4223 81.4617C95.3581 81.2689 95.2295 81.1404 95.0368 81.0761C94.8547 81.0012 94.5816 80.9583 94.2175 80.9476V80.6263C94.4424 80.637 94.7369 80.6478 95.101 80.6585C95.4652 80.6692 95.8561 80.6745 96.2737 80.6745C96.6486 80.6745 97.0181 80.6692 97.3822 80.6585C97.757 80.6478 98.0676 80.637 98.3139 80.6263ZM109.75 80.6263V80.9476C109.386 80.9583 109.107 81.0119 108.914 81.1083C108.732 81.2047 108.609 81.3599 108.545 81.5741C108.481 81.7883 108.448 82.0936 108.448 82.4898V92.0803C108.384 92.0803 108.32 92.0803 108.256 92.0803C108.202 92.0803 108.143 92.0803 108.079 92.0803L101.332 81.6545V90.1365C101.332 90.5221 101.364 90.8273 101.428 91.0522C101.503 91.2664 101.642 91.4217 101.846 91.5181C102.06 91.6037 102.376 91.6573 102.794 91.6787V92C102.601 91.9786 102.349 91.9679 102.039 91.9679C101.728 91.9572 101.434 91.9518 101.155 91.9518C100.887 91.9518 100.614 91.9572 100.336 91.9679C100.068 91.9679 99.8433 91.9786 99.6612 92V91.6787C100.025 91.6573 100.298 91.6037 100.48 91.5181C100.673 91.4217 100.802 91.2664 100.866 91.0522C100.93 90.8273 100.962 90.5221 100.962 90.1365V82.3292C100.962 81.9329 100.93 81.6438 100.866 81.4617C100.802 81.2689 100.673 81.1404 100.48 81.0761C100.298 81.0012 100.025 80.9583 99.6612 80.9476V80.6263C99.8433 80.637 100.068 80.6478 100.336 80.6585C100.614 80.6692 100.887 80.6745 101.155 80.6745C101.391 80.6745 101.616 80.6692 101.83 80.6585C102.044 80.6478 102.237 80.637 102.408 80.6263L108.079 89.3654V82.4898C108.079 82.0936 108.042 81.7883 107.967 81.5741C107.902 81.3599 107.763 81.2047 107.549 81.1083C107.345 81.0119 107.035 80.9583 106.617 80.9476V80.6263C106.81 80.637 107.062 80.6478 107.372 80.6585C107.693 80.6692 107.988 80.6745 108.256 80.6745C108.534 80.6745 108.807 80.6692 109.075 80.6585C109.353 80.6478 109.578 80.637 109.75 80.6263ZM119.02 80.6263C118.977 81.0012 118.945 81.3653 118.923 81.7187C118.913 82.0721 118.907 82.3399 118.907 82.5219C118.907 82.7147 118.913 82.9021 118.923 83.0842C118.934 83.2556 118.945 83.4001 118.956 83.5179H118.586C118.522 82.8861 118.431 82.3881 118.313 82.0239C118.195 81.6491 117.992 81.3867 117.703 81.2368C117.424 81.0761 117.001 80.9958 116.433 80.9958H115.1C114.736 80.9958 114.457 81.0279 114.265 81.0922C114.083 81.1458 113.959 81.2689 113.895 81.4617C113.831 81.6438 113.799 81.9329 113.799 82.3292V90.2972C113.799 90.6827 113.831 90.9719 113.895 91.1646C113.959 91.3574 114.083 91.4859 114.265 91.5502C114.457 91.6037 114.736 91.6305 115.1 91.6305H116.273C116.947 91.6305 117.456 91.5395 117.799 91.3574C118.152 91.1754 118.404 90.8808 118.554 90.4739C118.715 90.0562 118.832 89.4939 118.907 88.7871H119.277C119.245 89.0763 119.229 89.4618 119.229 89.9437C119.229 90.1472 119.234 90.4417 119.245 90.8273C119.266 91.2021 119.298 91.593 119.341 92C118.795 91.9786 118.179 91.9679 117.494 91.9679C116.808 91.9572 116.198 91.9518 115.662 91.9518C115.427 91.9518 115.121 91.9518 114.747 91.9518C114.383 91.9518 113.986 91.9572 113.558 91.9679C113.129 91.9679 112.696 91.9732 112.257 91.9839C111.818 91.9839 111.4 91.9893 111.004 92V91.6787C111.368 91.6573 111.641 91.6145 111.823 91.5502C112.016 91.4859 112.144 91.3574 112.208 91.1646C112.273 90.9719 112.305 90.6827 112.305 90.2972V82.3292C112.305 81.9329 112.273 81.6438 112.208 81.4617C112.144 81.2689 112.016 81.1404 111.823 81.0761C111.641 81.0012 111.368 80.9583 111.004 80.9476V80.6263C111.4 80.637 111.818 80.6478 112.257 80.6585C112.696 80.6585 113.129 80.6638 113.558 80.6745C113.986 80.6745 114.383 80.6745 114.747 80.6745C115.121 80.6745 115.427 80.6745 115.662 80.6745C116.155 80.6745 116.712 80.6745 117.333 80.6745C117.965 80.6638 118.527 80.6478 119.02 80.6263ZM116.257 86.1204C116.257 86.1204 116.257 86.1739 116.257 86.281C116.257 86.3881 116.257 86.4417 116.257 86.4417H113.317C113.317 86.4417 113.317 86.3881 113.317 86.281C113.317 86.1739 113.317 86.1204 113.317 86.1204H116.257ZM116.723 83.9999C116.68 84.6103 116.658 85.0762 116.658 85.3975C116.669 85.7188 116.674 86.0133 116.674 86.281C116.674 86.5488 116.68 86.8433 116.69 87.1646C116.701 87.4859 116.728 87.9517 116.771 88.5622H116.401C116.358 88.2195 116.305 87.8875 116.241 87.5662C116.187 87.2342 116.059 86.9665 115.855 86.763C115.662 86.5488 115.33 86.4417 114.859 86.4417V86.1204C115.213 86.1204 115.48 86.0508 115.662 85.9116C115.855 85.7616 115.994 85.5742 116.08 85.3493C116.166 85.1244 116.225 84.8941 116.257 84.6585C116.289 84.4122 116.321 84.1927 116.353 83.9999H116.723Z" fill="#363636"/>
<path fill-rule="evenodd" clip-rule="evenodd" d="M99.47 56.5651C94.733 56.5651 99.795 62.1861 99.756 68.9791C99.678 62.2251 104.207 56.5651 99.47 56.5651Z" fill="#363636"/>
<path fill-rule="evenodd" clip-rule="evenodd" d="M105.716 58.085C101.614 55.717 103.187 63.116 99.757 68.979C103.066 63.091 109.818 60.453 105.716 58.085Z" fill="#363636"/>
<path fill-rule="evenodd" clip-rule="evenodd" d="M93.302 58.371C89.2 60.739 96.395 63.076 99.757 68.979C96.312 63.17 97.403 56.003 93.302 58.371Z" fill="#363636"/>
<path fill-rule="evenodd" clip-rule="evenodd" d="M110.365 62.524C107.996 58.422 105.659 65.617 99.757 68.979C105.567 65.534 112.733 66.626 110.365 62.524Z" fill="#363636"/>
<path fill-rule="evenodd" clip-rule="evenodd" d="M88.862 63.02C86.494 67.122 93.893 65.549 99.756 68.979C93.869 65.67 91.231 58.918 88.862 63.02Z" fill="#363636"/>
<path fill-rule="evenodd" clip-rule="evenodd" d="M128.687 145.354V145.346L128.684 145.348L128.687 145.354ZM128.818 145.653C130.313 148.532 135.094 142.999 129.733 141.319C124.9 139.804 119.362 150.874 112.26 149.743C119.094 148.203 120.764 143.513 125.675 140.421C129.973 137.716 135.215 141.122 134.053 145.312C131.89 153.109 122.414 145.082 128.041 143.445C128.681 143.317 129.304 143.732 129.431 144.372C129.538 144.9 129.274 145.417 128.818 145.653Z" fill="#363636"/>
<path fill-rule="evenodd" clip-rule="evenodd" d="M111.98 143.31L111.981 143.324L111.977 143.321L111.98 143.31ZM112.063 142.942C113.132 139.363 119.937 144.481 113.75 147.742C108.362 150.582 106.538 141.311 99.9449 144.003C104.052 144.276 104.108 144.787 107.253 147.659C113.912 153.737 120.025 146.488 118.094 142.279C114.206 133.802 104.795 144.919 111.647 145.636C112.407 145.648 113.032 145.043 113.045 144.284C113.055 143.652 112.64 143.113 112.063 142.942Z" fill="#363636"/>
<path fill-rule="evenodd" clip-rule="evenodd" d="M99.47 156.187C94.733 156.187 99.795 150.566 99.756 143.773C99.678 150.527 104.207 156.187 99.47 156.187Z" fill="#363636"/>
<path fill-rule="evenodd" clip-rule="evenodd" d="M93.302 154.381C89.2 152.013 96.394 149.675 99.757 143.773C96.312 149.583 97.404 156.749 93.302 154.381Z" fill="#363636"/>
<path fill-rule="evenodd" clip-rule="evenodd" d="M105.716 154.667C101.614 157.035 103.187 149.636 99.757 143.773C103.066 149.661 109.818 152.299 105.716 154.667Z" fill="#363636"/>
<path fill-rule="evenodd" clip-rule="evenodd" d="M71.203 145.354L71.204 145.346L71.206 145.348L71.203 145.354ZM71.072 145.653C69.577 148.532 64.796 143 70.157 141.319C74.99 139.804 80.528 150.874 87.629 149.743C80.794 148.203 79.125 143.513 74.213 140.42C69.915 137.714 64.673 141.121 65.836 145.312C67.998 153.108 77.475 145.082 71.848 143.444C71.208 143.316 70.585 143.731 70.457 144.371C70.352 144.9 70.616 145.417 71.072 145.653Z" fill="#363636"/>
<path fill-rule="evenodd" clip-rule="evenodd" d="M87.9099 143.31L87.9079 143.324L87.9119 143.321L87.9099 143.31ZM87.8259 142.942C86.7569 139.363 79.9519 144.481 86.1399 147.742C91.5279 150.582 93.3519 141.311 99.9449 144.003C95.8379 144.276 95.7829 144.786 92.6369 147.657C85.9779 153.736 79.8649 146.486 81.7959 142.277C85.6839 133.8 95.0949 144.917 88.2429 145.634C87.4839 145.646 86.8579 145.041 86.8449 144.282C86.8339 143.652 87.2499 143.113 87.8259 142.942Z" fill="#363636"/>
</svg>
